# xmcd
#
# Track frame offsets:
#   150
#   14920
#   38215
#   72815
#
# Disc length: 1464 seconds
#
# Revision: 0
# Processed by: cddbd v1.5.2PL0 Copyright (c) Steve Scherf et al.
# Submitted via: GXTranscoder 2.0.1939
#
DISCID=3205b604
DTITLE=No Angels - Lets Go to Bed 
DYEAR=2002
DGENRE=Pop
TTITLE0=Lets go to bed (Single Mix)
TTITLE1=Lets go to bed (Extended)
TTITLE2=Lets go to bed (Antiloop Club Mix)
TTITLE3=Lets go to bed (Antiloop Dub Mix)
EXTD=
EXTT0=
EXTT1=
EXTT2=
EXTT3=
PLAYORDER=
